<svg height='300px' width='300px'  fill="#00c499" xmlns="http://www.w3.org/2000/svg" xmlns:xlink="http://www.w3.org/1999/xlink" version="1.1" x="0px" y="0px" viewBox="0 0 48 48" enable-background="new 0 0 48 48" xml:space="preserve"><g><path d="M45,0H3C1.3,0,0,1.3,0,3v42c0,1.7,1.3,3,3,3h42c1.7,0,3-1.3,3-3V3C48,1.3,46.7,0,45,0z M36.3,3.2c1.1,0,2,0.9,2,2   s-0.9,2-2,2c-1.1,0-2-0.9-2-2S35.2,3.2,36.3,3.2z M3.2,5.2c0-1.1,0.9-2,2-2H26c1.1,0,2,0.9,2,2s-0.9,2-2,2H5.2   C4.1,7.2,3.2,6.3,3.2,5.2z M43.7,43.3H4.3V11.2h39.3V43.3z M42.8,7.2c-1.1,0-2-0.9-2-2s0.9-2,2-2c1.1,0,2,0.9,2,2   S43.9,7.2,42.8,7.2z"></path><polygon points="20.9,36 27.1,39 27.1,26.3 34.5,16.2 13.5,16.2 20.9,26.3  "></polygon></g></svg>